<svg width="126" height="32" viewBox="0 0 126 32" fill="none" xmlns="http://www.w3.org/2000/svg">
<path d="M51.3682 6.80867C50.1817 6.80867 49.2188 5.81764 49.2188 4.61424C49.2188 3.39314 50.1817 2.4375 51.3682 2.4375C52.5719 2.4375 53.5349 3.39314 53.5349 4.61424C53.5349 5.81764 52.5719 6.80867 51.3682 6.80867ZM51.3682 28.5761C50.2505 28.5761 49.5111 27.7797 49.5111 26.5586V11.3214C49.5111 10.0826 50.2505 9.28626 51.3682 9.28626C52.4859 9.28626 53.2253 10.0826 53.2253 11.3214V26.5586C53.2253 27.7797 52.4859 28.5761 51.3682 28.5761Z" fill="#EFEFF5"/>
<path d="M58.1784 28.5761C57.0778 28.5761 56.3212 27.8151 56.3212 26.5586V11.2152C56.3212 10.0472 57.0091 9.28626 58.0924 9.28626C59.1585 9.28626 59.8979 10.0472 59.8979 11.2329V12.7018H59.9839C60.9641 10.5781 62.8556 9.30396 65.6413 9.30396C69.6307 9.30396 71.9177 11.9231 71.9177 16.1881V26.5586C71.9177 27.8151 71.1439 28.5761 70.0433 28.5761C68.96 28.5761 68.1862 27.8151 68.1862 26.5586V16.9314C68.1862 14.1353 66.9137 12.5956 64.3344 12.5956C61.7207 12.5956 60.0355 14.5069 60.0355 17.3915V26.5586C60.0355 27.8151 59.2617 28.5761 58.1784 28.5761Z" fill="#EFEFF5"/>
<path d="M81.7371 28.5761C80.413 28.5761 79.6908 28.0097 79.1749 26.6294L73.8099 12.1001C73.6895 11.7638 73.6035 11.3922 73.6035 11.0383C73.6035 9.97645 74.3945 9.28626 75.4779 9.28626C76.3376 9.28626 76.9223 9.76408 77.2318 10.7905L81.7199 24.5057H81.7887L86.2767 10.7551C86.5862 9.76408 87.1709 9.28626 88.0135 9.28626C89.0796 9.28626 89.8362 10.0118 89.8362 11.0206C89.8362 11.3568 89.7674 11.7285 89.6471 12.047L84.282 26.6294C83.8005 27.9744 83.0095 28.5761 81.7371 28.5761Z" fill="#EFEFF5"/>
<path d="M98.899 28.5938C93.7231 28.5938 90.3184 24.9305 90.3184 18.9312C90.3184 12.9496 93.7403 9.28626 98.899 9.28626C104.058 9.28626 107.48 12.9496 107.48 18.9312C107.48 24.9305 104.075 28.5938 98.899 28.5938ZM98.899 25.4437C101.822 25.4437 103.697 23.0723 103.697 18.9312C103.697 14.8077 101.805 12.4363 98.899 12.4363C95.9929 12.4363 94.1014 14.8077 94.1014 18.9312C94.1014 23.0723 95.9929 25.4437 98.899 25.4437Z" fill="#EFEFF5"/>
<path d="M117.419 28.5938C112.243 28.5938 108.839 24.9305 108.839 18.9312C108.839 12.9496 112.261 9.28626 117.419 9.28626C122.578 9.28626 126 12.9496 126 18.9312C126 24.9305 122.595 28.5938 117.419 28.5938ZM117.419 25.4437C120.343 25.4437 122.217 23.0723 122.217 18.9312C122.217 14.8077 120.325 12.4363 117.419 12.4363C114.513 12.4363 112.622 14.8077 112.622 18.9312C112.622 23.0723 114.513 25.4437 117.419 25.4437Z" fill="#EFEFF5"/>
<path d="M31.4113 17.3775C33.4983 15.4141 33.4983 12.2309 31.4113 10.2675L22.5941 1.97253C20.5071 0.00915721 17.1234 0.0091576 15.0364 1.97253L1.56524 14.6458C-0.525891 16.6131 -0.521132 19.804 1.57587 21.7658L10.4179 30.0374C12.5066 31.9914 15.8821 31.9869 17.9649 30.0275L31.4113 17.3775Z" fill="url(#paint0_linear_17_1043)"/>
<path d="M39.3097 17.3775C41.3655 15.4141 41.3655 12.2309 39.3097 10.2675L30.624 1.97253C28.5682 0.00915721 25.235 0.0091576 23.1792 1.97253L9.90907 14.6458C7.84915 16.6131 7.85383 19.804 9.91953 21.7658L18.6296 30.0374C20.6871 31.9914 24.0122 31.9869 26.064 30.0275L39.3097 17.3775Z" fill="url(#paint1_linear_17_1043)" fill-opacity="0.8"/>
<defs>
<linearGradient id="paint0_linear_17_1043" x1="32.8542" y1="14.7285" x2="7.33993" y2="24.9717" gradientUnits="userSpaceOnUse">
<stop stop-color="#3392FF"/>
<stop offset="1" stop-color="#7B4CFE"/>
</linearGradient>
<linearGradient id="paint1_linear_17_1043" x1="40.731" y1="14.7285" x2="15.4938" y2="24.7093" gradientUnits="userSpaceOnUse">
<stop stop-color="#3392FF"/>
<stop offset="1" stop-color="#7B4CFE"/>
</linearGradient>
</defs>
</svg>
